<svg width="91" height="44" viewBox="0 0 91 44" fill="none" xmlns="http://www.w3.org/2000/svg">
<rect width="91" height="44" fill="#D9D9D9"/>
<path d="M29.7802 10C29.7906 10.3405 29.7884 10.681 29.7883 11.0215C29.7879 12.4501 29.79 13.8788 29.7872 15.3075C29.7861 15.881 29.6241 16.4052 29.2628 16.8564C28.7686 17.4735 28.1225 17.7945 27.3322 17.7997C26.2079 17.807 25.0836 17.8015 23.9593 17.8015C23.9098 17.8015 23.8602 17.8015 23.7914 17.8015C23.7914 17.8499 23.7914 17.8934 23.7914 17.937C23.7914 18.5932 23.7914 19.2494 23.7914 19.9055C23.7913 21.7913 22.435 23.4184 20.5741 23.7362C19.2491 23.9624 18.0926 23.5912 17.1346 22.6516C16.4752 22.0049 16.1105 21.2033 16.0054 20.2759C15.9982 20.0276 15.9982 19.7862 16.0054 19.5262C16.0543 19.2881 16.0811 19.0644 16.1401 18.8496C16.574 17.2681 18.0314 15.9879 19.9643 15.9907C22.4078 15.9943 24.8513 15.9916 27.2947 15.9915C27.7123 15.9914 27.9778 15.7257 27.9778 15.308C27.9781 14.1867 27.9779 13.0654 27.9779 11.9441C27.9779 11.8997 27.9779 11.8554 27.9779 11.8045C27.9317 11.802 27.8994 11.7986 27.867 11.7986C26.7387 11.7983 25.6103 11.797 24.4819 11.7991C24.0663 11.7998 23.7917 12.0817 23.7915 12.4995C23.7911 13.355 23.7914 14.2105 23.7914 15.066V15.2054H21.9913C21.9881 15.1783 21.9837 15.1582 21.9837 15.1382C21.9872 14.204 21.9661 13.2689 22.0017 12.3359C22.0394 11.3483 22.5487 10.6415 23.4349 10.2187C23.6547 10.1138 23.9041 10.0712 24.1399 10C26.0161 10 27.8923 10 29.7802 10ZM17.9144 19.2116C17.7997 19.5434 17.7648 19.8842 17.8248 20.2295C18.0282 21.399 19.0804 22.1479 20.2537 21.9635C21.1681 21.8198 21.933 21.005 21.9719 20.0778C22.003 19.3358 21.9808 18.5915 21.9817 17.8483C21.9818 17.8369 21.9755 17.8255 21.9705 17.8082C21.9427 17.806 21.9145 17.8019 21.8863 17.8019C21.1977 17.8015 20.5091 17.8 19.8205 17.8032C19.7135 17.8037 19.6048 17.8172 19.5002 17.8398C18.7313 18.0061 18.2079 18.4623 17.9144 19.2116Z" fill="#724ABC"/>
<path d="M70.7362 34.3767C70.676 34.3603 70.6284 34.3404 70.5789 34.328C70.137 34.2174 69.8226 33.871 69.7535 33.406C69.9225 33.3632 70.0928 33.3201 70.2706 33.2751C70.2839 33.326 70.2934 33.3697 70.3066 33.4124C70.4277 33.8043 70.8748 34.0071 71.2506 33.8394C71.4051 33.7704 71.5033 33.6556 71.5238 33.4825C71.5448 33.3043 71.4668 33.1713 71.3178 33.0894C71.159 33.002 70.9891 32.9352 70.8253 32.8567C70.6727 32.7836 70.5147 32.7183 70.3714 32.6296C70.0453 32.4276 69.9108 32.1287 69.9756 31.7488C70.0367 31.3902 70.2672 31.1821 70.6033 31.084C71.1346 30.929 71.6339 31.1174 71.8835 31.5599C71.8914 31.574 71.8969 31.5894 71.9096 31.618C71.7692 31.7035 71.6301 31.7882 71.4873 31.8751C71.3809 31.7111 71.2654 31.5641 71.0711 31.5326C70.9686 31.516 70.8547 31.5203 70.755 31.5478C70.6146 31.5867 70.5246 31.6935 70.5038 31.8431C70.4837 31.988 70.5358 32.1133 70.6606 32.1843C70.8252 32.2778 71.0014 32.3507 71.1723 32.433C71.321 32.5045 71.4729 32.5704 71.6173 32.65C72.2542 33.0008 72.1769 33.8671 71.6293 34.1911C71.4878 34.2747 71.3142 34.3039 71.1516 34.3674C71.0145 34.3767 70.8812 34.3767 70.7362 34.3767Z" fill="#030303"/>
<path d="M28.0033 28.5691V31.954H26.2741V20.9616H28.0013V21.9742C28.1458 21.8096 28.27 21.6445 28.4176 21.5043C28.9281 21.0192 29.5565 20.8276 30.2444 20.8148C31.7261 20.7873 32.7437 21.5123 33.3147 22.837C33.8881 24.1673 33.8893 25.5381 33.32 26.8749C32.894 27.8753 32.1502 28.5571 31.0676 28.8026C30.2768 28.9819 29.5114 28.9039 28.8038 28.4733C28.5162 28.2982 28.2828 28.0653 28.0908 27.7898C28.0719 27.7626 28.0534 27.7352 28.0334 27.7089C28.0297 27.7041 28.0195 27.7043 28.0033 27.6996V28.5691ZM31.0693 26.9206C31.3141 26.7398 31.5085 26.5142 31.6374 26.2394C32.0536 25.3521 32.0689 24.4464 31.6759 23.5564C31.342 22.8004 30.7197 22.429 29.8971 22.4286C29.1024 22.4283 28.4902 22.7784 28.1471 23.5022C27.7346 24.3721 27.7249 25.2728 28.1217 26.1504C28.7196 27.4722 30.2551 27.5194 31.0693 26.9206Z" fill="#010101"/>
<path d="M49.8722 19.8204C49.8722 19.1196 49.8722 18.4312 49.8722 17.7369H51.6271V24.0928C51.6803 24.042 51.7143 24.0119 51.7455 23.9792C52.6857 22.9959 53.6253 22.012 54.5669 21.0301C54.6007 20.995 54.6546 20.958 54.6993 20.9577C55.4168 20.9532 56.1343 20.9545 56.8883 20.9545C55.9401 21.9363 55.0125 22.8967 54.0799 23.8623C55.1306 25.4876 56.1776 27.107 57.2356 28.7436H57.0994C56.4854 28.7436 55.8714 28.7419 55.2574 28.7455C55.1733 28.7459 55.1263 28.7211 55.0803 28.6481C54.354 27.495 53.624 26.3443 52.8947 25.1932C52.8642 25.145 52.8322 25.0978 52.7943 25.0402C52.5207 25.3424 52.2538 25.6359 51.9884 25.9308C51.8693 26.0631 51.7092 26.181 51.6483 26.337C51.5891 26.4886 51.6321 26.6806 51.6319 26.8548C51.6315 27.4404 51.6318 28.026 51.6318 28.6116C51.6318 28.6521 51.6318 28.6927 51.6318 28.7382H49.8722L49.8722 19.8204Z" fill="black"/>
<path d="M47.7807 21.5276C48.3333 21.9899 48.6228 22.5845 48.7112 23.2811C48.7409 23.5149 48.7498 23.7526 48.7504 23.9886C48.7537 25.5256 48.7521 27.0625 48.752 28.5995V28.7378H47.1338C47.0996 28.3878 47.0659 28.0427 47.0305 27.6807C46.9151 27.818 46.8185 27.9458 46.709 28.0613C46.0973 28.7062 45.3315 28.9317 44.4651 28.8789C43.8678 28.8425 43.3037 28.6971 42.805 28.3538C42.0255 27.8173 41.7172 27.0588 41.7794 26.1313C41.8437 25.1723 42.5076 24.3757 43.6152 24.1628C43.9874 24.0913 44.371 24.0595 44.7504 24.05C45.4512 24.0325 46.1528 24.045 46.854 24.045C46.8992 24.045 46.9444 24.045 46.9887 24.045C47.0834 23.2587 46.7714 22.6381 46.0461 22.4153C45.3153 22.1908 44.6044 22.299 43.9159 22.6009C43.5435 22.7642 43.2224 23.0041 42.9255 23.2989C42.5986 22.9141 42.2749 22.5331 41.933 22.1306C42.142 21.9657 42.3421 21.7927 42.5572 21.6408C43.3773 21.0618 44.305 20.8317 45.2954 20.8132C45.8672 20.8025 46.4288 20.8588 46.969 21.0622C47.2621 21.1726 47.5312 21.3239 47.7807 21.5276ZM43.6372 25.9204C43.3792 26.43 43.5693 27.0115 44.0854 27.2729C44.8195 27.6447 46.0715 27.502 46.7028 26.5428C46.9372 26.1867 47.0246 25.7984 47.0046 25.3664H46.8608C46.243 25.3664 45.6251 25.3636 45.0073 25.3682C44.8298 25.3695 44.6508 25.3809 44.4755 25.4074C44.134 25.4591 43.8252 25.5758 43.6372 25.9204Z" fill="#010101"/>
<path d="M38.0077 28.889C37.3474 28.8839 36.7158 28.7979 36.1266 28.5055C35.2358 28.0636 34.6968 27.3284 34.4167 26.3969C34.043 25.1539 34.1072 23.9247 34.6557 22.7457C35.1831 21.6119 36.0879 20.9714 37.337 20.8392C37.9876 20.7704 38.63 20.8097 39.2461 21.0495C40.104 21.3834 40.6897 22 41.042 22.8405C41.3888 23.6679 41.449 24.533 41.3471 25.4254H35.9583C35.9619 26.3916 36.6402 27.1754 37.5866 27.2962C38.571 27.4218 39.4544 27.2017 40.1901 26.4779C40.5117 26.8683 40.8314 27.2564 41.1533 27.6471C40.2701 28.4861 39.2255 28.8908 38.0077 28.889ZM35.9889 24.1284H39.6998C39.7052 24.0929 39.7136 24.0647 39.7132 24.0365C39.7085 23.6763 39.6239 23.3386 39.42 23.0375C38.9345 22.3205 37.9839 22.0952 37.1766 22.3824C36.3998 22.6587 36.0453 23.2818 35.9251 24.0634C35.9221 24.0825 35.9518 24.1066 35.9889 24.1284Z" fill="#010101"/>
<path d="M66.7614 28.7436C66.1522 28.7436 65.5547 28.7406 64.9573 28.7465C64.856 28.7475 64.8032 28.711 64.752 28.6308C64.1947 27.7579 63.6343 26.887 63.07 26.0081C63.0526 26.0296 63.037 26.0457 63.025 26.0641C62.4618 26.9237 61.8979 27.7827 61.3379 28.6444C61.2889 28.7197 61.2386 28.7465 61.1492 28.7459C60.5435 28.7415 59.9377 28.7436 59.332 28.7436H59.1931C60.0992 27.4279 60.9938 26.129 61.892 24.8246C60.9975 23.5414 60.1046 22.2605 59.2031 20.9673C59.2419 20.9618 59.2678 20.9548 59.2937 20.9548C59.9326 20.9542 60.5716 20.9558 61.2105 20.9523C61.2841 20.9519 61.321 20.9807 61.3581 21.0377C61.9034 21.8742 62.4506 22.7095 62.9975 23.545C63.0177 23.5759 63.0397 23.6056 63.0671 23.6447C63.2507 23.3691 63.4292 23.1011 63.6077 22.8331C64.0031 22.2398 64.3996 21.6473 64.7923 21.0523C64.8379 20.9832 64.8831 20.9514 64.9702 20.952C65.5842 20.9564 66.1982 20.9543 66.8123 20.9543C66.8444 20.9543 66.8765 20.9543 66.9355 20.9543C66.0233 22.2553 65.1254 23.5359 64.2218 24.8247C65.1212 26.1231 66.0215 27.4227 66.9364 28.7436L66.7614 28.7436Z" fill="#010101"/>
<path d="M74.7544 21.1126C73.7163 23.6615 72.6812 26.2011 71.646 28.7408H70.1869C69.1334 26.1541 68.0791 23.5654 67.0191 20.9626C67.0633 20.9594 67.0985 20.9547 67.1337 20.9547C67.7022 20.9542 68.2706 20.9564 68.839 20.9521C68.9244 20.9514 68.9585 20.9779 68.9868 21.0574C69.6134 22.8152 70.2432 24.5718 70.8724 26.3287C70.8835 26.3597 70.895 26.3906 70.9132 26.4402C70.9363 26.3884 70.9557 26.351 70.97 26.3118C71.603 24.5688 72.2364 22.8259 72.8662 21.0818C72.9008 20.9859 72.9428 20.9501 73.0488 20.9514C73.5923 20.9578 74.1359 20.9543 74.6795 20.9543H74.8138C74.7914 21.0135 74.7744 21.0584 74.7544 21.1126Z" fill="#010101"/>
<path d="M61.035 33.9776V31.099C61.2103 31.099 61.3791 31.0945 61.5472 31.1029C61.5798 31.1045 61.6183 31.1513 61.6398 31.1861C62.0625 31.8695 62.4831 32.5541 62.9042 33.2385C62.9246 33.2716 62.946 33.3041 62.9914 33.3297V31.1054H63.5272V34.3144C63.3522 34.3144 63.1826 34.3197 63.0138 34.3102C62.9778 34.3082 62.9352 34.2586 62.9121 34.2208C62.4909 33.5321 62.0723 32.8418 61.653 32.1519C61.6362 32.1243 61.6182 32.0974 61.583 32.0424V34.3054H61.035L61.035 33.9776Z" fill="#010101"/>
<path d="M57.5504 34.3148C57.2472 34.3724 57.0741 34.2577 56.9476 33.9836C56.7992 33.6617 56.5968 33.365 56.4215 33.0553C56.3872 32.9949 56.3515 32.9627 56.2774 32.9671C56.1666 32.9737 56.0551 32.9688 55.9352 32.9688V34.3039H55.3968V31.1169C55.4028 31.1125 55.4094 31.1033 55.4158 31.1034C55.8669 31.1122 56.3209 31.0928 56.7681 31.1393C57.2112 31.1854 57.4542 31.4646 57.5004 31.8746C57.5553 32.3626 57.3781 32.6968 56.9686 32.8777C56.9574 32.8827 56.9461 32.8875 56.9247 32.8969C57.2038 33.3636 57.4817 33.8279 57.773 34.3148L57.5504 34.3148ZM55.931 31.8719V32.5021C56.183 32.485 56.4239 32.486 56.6584 32.4476C56.8634 32.414 56.9627 32.2569 56.9678 32.039C56.9728 31.8257 56.8829 31.6664 56.6814 31.6297C56.4372 31.5852 56.1851 31.5837 55.931 31.5632V31.8719Z" fill="#040404"/>
<path d="M67.6749 33.7036V34.3069H67.1442V31.1109C67.1567 31.1073 67.1714 31.0994 67.186 31.0995C67.5717 31.102 67.9574 31.1034 68.3431 31.11C68.4252 31.1114 68.5086 31.1257 68.5886 31.1452C69.0671 31.2621 69.3109 31.6481 69.2467 32.1632C69.2018 32.5229 69.0161 32.7659 68.6684 32.896C68.9507 33.3678 69.2281 33.8316 69.517 34.3145C69.3125 34.3145 69.1274 34.3193 68.943 34.3104C68.9072 34.3087 68.8631 34.2605 68.8411 34.223C68.6146 33.8373 68.3896 33.4506 68.1701 33.0609C68.1294 32.9885 68.0852 32.9615 68.0044 32.967C67.9015 32.9741 67.7978 32.9687 67.6749 32.9687V33.7036ZM68.0715 31.5809H67.6814V32.4864C67.7782 32.4864 67.8689 32.49 67.9592 32.4856C68.1036 32.4785 68.251 32.4818 68.3911 32.4523C68.611 32.4059 68.7166 32.2469 68.7114 32.0139C68.7065 31.7941 68.5996 31.66 68.379 31.6125C68.2866 31.5926 68.1903 31.5909 68.0715 31.5809Z" fill="#020202"/>
<path d="M64.3215 33.0806V31.1061H66.4463V31.5803H64.869V32.4279H66.3252V32.9104H64.8666V33.8292H66.4475V34.3057H64.3215V33.0806Z" fill="#010101"/>
<path d="M52.1083 34.3147C52.06 34.3147 52.0232 34.3147 51.9699 34.3147C51.9949 34.2443 52.0145 34.1833 52.038 34.1239C52.4231 33.1507 52.8101 32.1782 53.1919 31.2036C53.2254 31.1182 53.2679 31.0954 53.3542 31.0967C53.642 31.101 53.6428 31.0974 53.7497 31.3683C54.1221 32.3111 54.4939 33.2541 54.8657 34.197C54.8779 34.2278 54.8884 34.2592 54.9077 34.3124C54.7147 34.3124 54.5311 34.3146 54.3477 34.309C54.3291 34.3085 54.3056 34.2635 54.295 34.2352C54.2325 34.0684 54.1717 33.901 54.1138 33.7327C54.0929 33.6721 54.0678 33.6388 53.993 33.6397C53.6238 33.6442 53.2544 33.6435 52.8852 33.6401C52.8187 33.6395 52.791 33.6635 52.7707 33.7234C52.7165 33.8839 52.6499 34.0405 52.6 34.2022C52.5715 34.2946 52.5245 34.3247 52.4308 34.3167C52.3278 34.308 52.2235 34.3147 52.1083 34.3147ZM53.8644 33.052C53.7253 32.6731 53.5861 32.2941 53.4391 31.8938C53.2807 32.3294 53.132 32.7383 52.9789 33.1596C53.1522 33.1596 53.3014 33.1596 53.4505 33.1596C53.597 33.1596 53.7434 33.1596 53.9001 33.1596C53.8857 33.1176 53.8779 33.0946 53.8644 33.052Z" fill="#030303"/>
<path d="M51.9572 32.3094C51.8528 32.691 51.5664 32.9239 51.1437 32.9528C50.9046 32.9692 50.6635 32.9558 50.4128 32.9558V34.3066H49.8798V31.0801C50.3593 31.1 50.8378 31.087 51.3065 31.1484C51.7878 31.2115 52.0257 31.5901 51.9872 32.1155C51.9827 32.1772 51.9692 32.2382 51.9572 32.3094ZM51.1109 32.4593C51.3622 32.3818 51.462 32.2506 51.452 32.0112C51.4424 31.7793 51.3326 31.6428 51.079 31.6071C50.8607 31.5764 50.6372 31.5822 50.415 31.5718V32.4973C50.6455 32.4858 50.8679 32.4747 51.1109 32.4593Z" fill="#010101"/>
<path d="M59.533 34.051V34.3062H58.997V31.5839H57.9791V31.1069H60.5405V31.5784H59.533V34.051Z" fill="#010101"/>
</svg>
