<svg width="91" height="44" viewBox="0 0 91 44" fill="none" xmlns="http://www.w3.org/2000/svg">
<rect width="91" height="44" fill="#D9D9D9"/>
<path d="M22.5624 27.6852C25.6448 27.6852 28.7138 27.685 31.7827 27.6863C31.8848 27.6864 31.9885 27.6949 32.0888 27.7135C32.3196 27.7562 32.464 27.9318 32.4723 28.1667C32.4731 28.1892 32.4725 28.2118 32.4725 28.2343C32.4725 29.0906 32.4669 29.9469 32.4753 30.8031C32.4786 31.1371 32.2538 31.337 31.9391 31.3369C26.2352 31.3357 20.5313 31.3364 14.8273 31.3348C14.5444 31.3348 14.2683 31.2803 14.0019 31.1823C13.5393 31.0122 13.2536 30.6771 13.1122 30.2089C13.0283 29.9311 13.0027 29.6452 13.002 29.3569C13.0002 28.5592 12.9982 27.7615 13.0029 26.9638C13.0049 26.6231 13.0199 26.2829 13.1072 25.9494C13.203 25.5838 13.4021 25.2942 13.7181 25.0942C13.971 24.9343 14.2311 24.785 14.4938 24.6417C15.047 24.3398 15.6037 24.0444 16.1596 23.7474C16.6287 23.4967 17.0992 23.2486 17.5681 22.9976C18.167 22.6769 18.7647 22.3538 19.3634 22.0329C19.8874 21.7521 20.4124 21.4732 20.9366 21.1927C21.5592 20.8595 22.1813 20.5252 22.8039 20.192C23.3399 19.9051 23.8765 19.6196 24.4125 19.3326C25.0862 18.9719 25.7594 18.6101 26.4332 18.2494C26.9021 17.9983 27.3716 17.7482 27.8406 17.4974C27.8839 17.4743 27.927 17.4505 27.9683 17.424C28.0867 17.3478 28.1441 17.2356 28.1498 17.0963C28.1527 17.0244 28.1521 16.9521 28.15 16.8801C28.1463 16.7487 28.1031 16.6942 27.9722 16.6675C27.9117 16.6551 27.8483 16.6523 27.7862 16.6523C23.1112 16.6517 18.4362 16.6518 13.7612 16.651C13.6902 16.651 13.6175 16.648 13.5486 16.6325C13.3259 16.5825 13.203 16.4446 13.1709 16.2173C13.1646 16.173 13.1628 16.1276 13.1628 16.0827C13.1623 15.249 13.1629 14.4153 13.1621 13.5816C13.1619 13.4036 13.196 13.2403 13.3422 13.1224C13.4559 13.0308 13.5941 13.0139 13.7326 13.0016C13.7682 12.9984 13.8042 13.001 13.84 13.001C19.4187 13.001 24.9973 13.0006 30.576 13.0018C30.9392 13.0019 31.2968 13.0455 31.6369 13.187C32.1598 13.4046 32.4512 13.8107 32.5731 14.3535C32.6205 14.5646 32.6353 14.7791 32.6347 14.996C32.632 15.8567 32.6348 16.7175 32.6328 17.5783C32.6322 17.8441 32.599 18.1062 32.5297 18.3639C32.427 18.7456 32.2165 19.0498 31.8844 19.2589C31.6236 19.4232 31.3558 19.5774 31.0847 19.7238C30.4515 20.0658 29.8145 20.4008 29.1787 20.738C28.6457 21.0208 28.1118 21.3019 27.579 21.5852C26.9673 21.9104 26.3565 22.2375 25.745 22.563C25.3149 22.792 24.8841 23.0194 24.4539 23.2479C23.9091 23.5373 23.3648 23.8274 22.8199 24.1166C22.2908 24.3973 21.761 24.6767 21.2321 24.9578C20.6164 25.285 20.0016 25.6138 19.386 25.9413C19.0229 26.1345 18.6591 26.3261 18.2958 26.5189C18.0589 26.6446 17.8219 26.7699 17.5861 26.8977C17.435 26.9796 17.3615 27.1109 17.3589 27.2829C17.358 27.3415 17.3571 27.4001 17.3592 27.4586C17.3646 27.6103 17.4347 27.6806 17.5832 27.6851C17.6145 27.686 17.6458 27.6852 17.6772 27.6852L22.5624 27.6852Z" fill="#F87218"/>
<path d="M48.5216 27.6056C44.5356 27.6056 40.563 27.6056 36.5905 27.6054C36.3576 27.6054 36.1259 27.5856 35.903 27.5163C35.3717 27.351 35.0641 26.9747 34.9403 26.4405C34.9063 26.2934 34.8921 26.1387 34.891 25.9874C34.8858 25.3114 34.8837 24.6354 34.891 23.9595C34.8944 23.6458 34.9255 23.3334 35.0137 23.029C35.114 22.6826 35.3034 22.3979 35.5671 22.1559C35.8562 21.8905 36.1906 21.6897 36.5102 21.4684C37.5482 20.7498 38.59 20.0368 39.6305 19.322C40.3574 18.8227 41.085 18.3245 41.8117 17.8248C42.8113 17.1374 43.8099 16.4486 44.8096 15.7613C45.337 15.3986 45.866 15.0382 46.3937 14.6759C46.8329 14.3744 47.2686 14.0675 47.7107 13.7706C48.1277 13.4905 48.5605 13.2399 49.0563 13.1249C49.3395 13.0592 49.6267 13.0225 49.9173 13.0195C50.5654 13.0127 51.2135 12.9999 51.8614 13.0055C52.2541 13.0088 52.6424 13.0577 53.0122 13.2118C53.4326 13.3871 53.7215 13.6818 53.8734 14.1153C53.9751 14.4054 54.0353 14.7043 54.0536 15.0096C54.0727 15.3279 54.0815 15.6473 54.0817 15.9662C54.0838 18.6837 54.0829 21.4011 54.0829 24.1186C54.0829 24.1719 54.0829 24.2252 54.0829 24.2959H54.2363C54.9028 24.2959 55.5694 24.2966 56.236 24.2954C56.374 24.2952 56.5024 24.3202 56.6112 24.4118C56.7377 24.5182 56.7829 24.6643 56.7837 24.8202C56.7874 25.5772 56.7907 26.3344 56.7828 27.0914C56.7795 27.4122 56.5915 27.5662 56.3297 27.5952C56.2721 27.6016 56.2139 27.6051 56.156 27.6052C55.5208 27.6058 54.8855 27.6056 54.2503 27.6056C54.2012 27.6056 54.1522 27.6056 54.0869 27.6056C54.0855 27.6578 54.0831 27.7054 54.0831 27.753C54.0828 28.7535 54.0834 29.7539 54.0818 30.7544C54.0817 30.8298 54.0713 30.9062 54.0568 30.9804C54.0096 31.2232 53.816 31.3146 53.6397 31.3363C53.6133 31.3395 53.5861 31.3375 53.5593 31.3375C52.6243 31.3375 51.6893 31.3377 50.7543 31.3373C50.5588 31.3372 50.3924 31.2729 50.2942 31.0927C50.2239 30.9637 50.2181 30.8172 50.2179 30.6735C50.2165 29.7857 50.2172 28.8979 50.2172 28.0101C50.2172 27.8802 50.2172 27.7503 50.2172 27.6056L48.5216 27.6056ZM48.186 24.296H50.2173C50.2173 24.2352 50.2173 24.1906 50.2173 24.146C50.2173 21.6992 50.2173 19.2523 50.2172 16.8055C50.2172 16.7695 50.2193 16.7331 50.2157 16.6974C50.2031 16.5732 50.138 16.5177 50.0153 16.5067C49.7433 16.4823 49.5063 16.5676 49.2864 16.7222C48.9531 16.9564 48.6174 17.187 48.2823 17.4186C47.5681 17.9123 46.8534 18.4055 46.1392 18.8993C45.344 19.4492 44.5493 19.9997 43.7542 20.5498C43.1358 20.9777 42.5173 21.4053 41.8989 21.833C41.1075 22.3805 40.3211 22.9354 39.5219 23.471C39.2866 23.6286 39.1622 23.8097 39.2017 24.094C39.2029 24.1029 39.2015 24.112 39.202 24.121C39.2065 24.2173 39.2359 24.2584 39.3313 24.2797C39.3872 24.2922 39.446 24.2954 39.5035 24.2954C42.3887 24.2961 45.2739 24.296 48.186 24.296Z" fill="#1F2A51"/>
<path d="M58.6689 16.3184C58.3155 16.3184 57.9754 16.3185 57.6354 16.3184C57.6041 16.3184 57.5724 16.3215 57.5415 16.3175C57.2267 16.2773 57.0452 16.1441 57.0393 15.7694C57.0276 15.0349 57.0347 14.3001 57.0374 13.5654C57.0377 13.4904 57.0523 13.4128 57.0747 13.3409C57.129 13.1664 57.2544 13.0648 57.4299 13.0306C57.5169 13.0136 57.6068 13.0036 57.6953 13.0035C63.6012 13.0023 69.5071 13.0021 75.413 13.0037C75.6358 13.0038 75.8589 13.0259 76.0734 13.0926C76.6456 13.2708 76.9512 13.6826 77.0576 14.2584C77.0835 14.3986 77.087 14.5443 77.0877 14.6876C77.0909 15.2825 77.0908 15.8775 77.0883 16.4724C77.0871 16.7553 77.0622 17.0365 77.0051 17.3144C76.9291 17.6841 76.758 18.0095 76.5296 18.3013C76.3143 18.5762 76.0824 18.8383 75.8502 19.0991C75.5789 19.4037 75.2999 19.7012 75.0232 20.0009C74.8195 20.2216 74.6134 20.4399 74.4098 20.6607C74.1395 20.9538 73.8712 21.2487 73.6009 21.5419C73.4003 21.7595 73.1974 21.9749 72.9966 22.1924C72.717 22.4952 72.4389 22.7995 72.1593 23.1024C71.9617 23.3165 71.7622 23.5289 71.5646 23.7431C71.2881 24.0428 71.0132 24.344 70.7366 24.6437C70.5361 24.861 70.3334 25.0763 70.1328 25.2936C69.8563 25.5933 69.5814 25.8945 69.3049 26.1942C69.1042 26.4116 68.9013 26.627 68.7007 26.8445C68.4273 27.1409 68.1557 27.4389 67.8823 27.7353C67.6817 27.9529 67.4788 28.1683 67.278 28.3858C66.9984 28.6887 66.7203 28.9929 66.4408 29.2958C66.2432 29.5099 66.0437 29.7222 65.8462 29.9363C65.5697 30.2361 65.2948 30.5375 65.0178 30.8369C64.9508 30.9093 64.8806 30.9792 64.8078 31.0458C64.5822 31.2524 64.315 31.3394 64.0111 31.3387C62.7494 31.3359 61.4876 31.3377 60.2259 31.3371C60.1772 31.337 60.1264 31.3378 60.08 31.3251C59.8747 31.2689 59.7705 31.0384 59.8412 30.8143C59.8766 30.7024 59.9515 30.6196 60.0282 30.5383C60.4161 30.1276 60.806 29.7187 61.1943 29.3084C61.5363 28.9471 61.8772 28.5847 62.2185 28.2228C62.5567 27.8641 62.8949 27.5054 63.2331 27.1466C63.5683 26.791 63.9034 26.4353 64.2386 26.0797C64.577 25.7207 64.9154 25.3617 65.2539 25.0028C65.5955 24.6406 65.9372 24.2786 66.2787 23.9163C66.6139 23.5608 66.949 23.205 67.2842 22.8494C67.6255 22.4874 67.9669 22.1256 68.3083 21.7636C68.6496 21.4017 68.9911 21.0399 69.3324 20.6779C69.6644 20.3256 69.9962 19.973 70.3282 19.6207C70.6697 19.2585 71.0114 18.8964 71.353 18.5342C71.6915 18.1753 72.0322 17.8185 72.3673 17.4564C72.5345 17.2758 72.6935 17.0874 72.8519 16.8989C72.9517 16.7802 72.9538 16.6333 72.9438 16.4883C72.9379 16.403 72.8858 16.3461 72.8016 16.3314C72.7404 16.3206 72.6772 16.3189 72.6148 16.3189C67.9707 16.3184 63.3265 16.3184 58.6689 16.3184Z" fill="#202B51"/>
</svg>
