<svg width="91" height="44" viewBox="0 0 91 44" fill="none" xmlns="http://www.w3.org/2000/svg">
<rect width="91" height="44" fill="#D9D9D9"/>
<path fill-rule="evenodd" clip-rule="evenodd" d="M12 17.0009H13.0153V20.6755H17.3178V17.0009H18.3331V25.4519H17.3178V22.8487C17.3298 22.5371 17.4483 21.9725 17.8536 21.6865V21.6251H13.0153V25.451H12V17V17.0009ZM24.9585 21.6673V25.451H23.9562V24.659H23.8942C23.6471 25.1751 23.2455 25.3657 22.8559 25.4885C22.6124 25.5591 22.3422 25.5948 22.046 25.5948C21.3131 25.5948 20.7531 25.3914 20.3663 24.9844C19.9794 24.5692 19.786 23.9588 19.786 23.1531V19.6343H20.7531V22.9734C20.7531 23.5875 20.8781 24.0385 21.128 24.3263C21.3862 24.6132 21.7721 24.7571 22.2885 24.7571C22.8364 24.7571 23.2556 24.6013 23.5453 24.2905C23.7591 24.0678 23.8961 23.7745 23.9572 23.4116V19.6343H24.9539V20.4161H25.0159C25.2862 19.8524 25.7405 19.6764 26.1626 19.5545C26.3551 19.5124 26.5624 19.4904 26.7845 19.4904C27.2759 19.4904 27.6868 19.594 28.0172 19.802C28.3541 20.0009 28.5947 20.2997 28.74 20.6875H28.8021C29.013 20.1366 29.4249 19.813 29.8228 19.648C30.0986 19.5426 30.4161 19.4904 30.7724 19.4904C31.4729 19.4904 32.0088 19.6975 32.3799 20.1127C32.7501 20.528 32.9361 21.1384 32.9361 21.9441V25.451H31.969V22.1238C31.969 21.5096 31.8478 21.0587 31.6062 20.7708C31.373 20.4757 31.0139 20.3281 30.5308 20.3281C30.0153 20.3281 29.6165 20.4876 29.3342 20.8066C29.0602 21.1182 28.9233 21.5646 28.9233 22.1476V25.451H27.9562V22.1238C27.9562 21.5014 27.8395 21.0467 27.6054 20.759C27.3713 20.4721 27.0094 20.3281 26.518 20.3281C26.0024 20.3281 25.6073 20.4876 25.3334 20.8066C25.1399 21.0257 25.015 21.3126 24.9585 21.6673ZM41.1349 19.4904C41.8355 19.4904 42.3714 19.6975 42.7425 20.1127C43.1127 20.528 43.2987 21.1384 43.2987 21.9441V25.451H42.3316V22.1238C42.3316 21.5096 42.2103 21.0587 41.9688 20.7708C41.7356 20.4757 41.3765 20.3281 40.8934 20.3281C40.3779 20.3281 39.979 20.4876 39.6967 20.8066C39.4228 21.1182 39.2858 21.5646 39.2858 22.1476V25.451H38.3187V22.1238C38.3187 21.5014 38.2021 21.0467 37.9679 20.759C37.7347 20.4721 37.3719 20.3281 36.8805 20.3281C36.365 20.3281 35.9699 20.4876 35.6959 20.8066C35.422 21.1182 35.285 21.5646 35.285 22.1476V25.451H34.3179V19.6334H35.2785V20.4152H35.3405C35.4544 20.1769 35.6015 20.0082 35.7644 19.8836C35.8523 19.8203 35.9458 19.7654 36.0457 19.7168C36.3604 19.5655 36.7269 19.4895 37.1452 19.4895C37.6366 19.4895 38.0475 19.593 38.3779 19.8011C38.7148 20 38.9563 20.2979 39.1017 20.6875H39.1637C39.3756 20.1338 39.7911 19.8093 40.1909 19.6453C40.4658 19.5417 40.7795 19.4904 41.1331 19.4904H41.1349ZM45.6475 19.6343H44.6805V25.4519H45.6475V19.6343ZM49.9769 19.4904C50.7099 19.4904 51.2661 19.6975 51.6447 20.1127C52.0315 20.5197 52.2249 21.1265 52.2249 21.9322V25.451H51.2578V22.1118C51.2578 21.4977 51.1329 21.0467 50.883 20.759C50.6331 20.4721 50.2509 20.3281 49.7345 20.3281C49.1866 20.3281 48.7636 20.484 48.4656 20.7947C48.176 21.1063 48.0306 21.5564 48.0306 22.1476V25.451H47.0635V19.6334H48.0306V20.4152H48.0945C48.1593 20.2796 48.2352 20.1668 48.3175 20.0715C48.7174 19.6838 49.2699 19.4895 49.976 19.4895L49.9769 19.4904ZM59.017 25.3318V19.6343H58.0499V20.527H57.9841C57.7064 19.9468 57.119 19.6994 56.6838 19.5747C56.4561 19.5179 56.2147 19.4904 55.9593 19.4904C55.3958 19.4904 54.908 19.6178 54.497 19.8735C54.086 20.121 53.7797 20.472 53.578 20.9267C53.3688 21.3896 53.2633 21.9239 53.2633 22.5307C53.2633 23.1375 53.3679 23.66 53.578 24.1228C53.7797 24.5774 54.0851 24.9331 54.497 25.1879C54.908 25.4354 55.3958 25.5591 55.9593 25.5591C56.4108 25.5591 56.8136 25.4757 57.1677 25.308C57.2993 25.2475 57.4206 25.176 57.5334 25.0935C57.7111 24.9551 57.8696 24.7782 57.9785 24.549H58.0405V25.2649H58.0388V25.4757C58.0388 25.8029 57.9862 26.1017 57.8816 26.3731C57.6159 26.9478 57.0558 27.2347 56.2019 27.2347C55.9037 27.2347 55.638 27.1989 55.4039 27.1265C55.1707 27.055 54.9772 26.9514 54.8238 26.8148C54.5655 26.5912 54.4331 26.3006 54.4248 25.9414H53.4216C53.4539 26.5316 53.6677 27.0028 54.062 27.3538C54.5294 27.7846 55.2467 28 56.213 28C56.8495 28 57.3771 27.8928 57.7961 27.6764C58.2229 27.461 58.5377 27.1375 58.7393 26.7067C58.9243 26.3153 59.017 25.857 59.017 25.33V25.3318ZM57.1558 24.494C56.882 24.6535 56.5552 24.7333 56.1767 24.7333C55.7982 24.7333 55.4513 24.6499 55.1613 24.4821C54.8717 24.3144 54.6543 24.0715 54.509 23.7516C54.3637 23.4161 54.2915 23.0092 54.2915 22.5307C54.2915 22.0523 54.3637 21.6288 54.509 21.3098C54.6543 20.9908 54.867 20.747 55.1493 20.5793C55.439 20.4116 55.7816 20.3281 56.1767 20.3281C56.5718 20.3281 56.882 20.4079 57.1558 20.5674C57.4382 20.7268 57.6556 20.9624 57.8085 21.2732C57.961 21.5765 58.0379 21.9478 58.0379 22.3859V22.6728C58.0379 23.1118 57.961 23.4867 57.8085 23.7983C57.6556 24.1017 57.4382 24.3327 57.1558 24.4922V24.494ZM65.8749 20.9395C66.0838 21.4024 66.1893 21.9368 66.1893 22.5435C66.1893 23.1503 66.0847 23.6847 65.8749 24.1476C65.6656 24.6022 65.3555 24.9578 64.9437 25.2126C64.5413 25.4601 64.0534 25.5839 63.4814 25.5839C63.2038 25.5839 62.9449 25.5536 62.7023 25.4922L62.78 25.506C62.3439 25.3822 61.7462 25.1356 61.466 24.5499H61.3789V25.4528H60.4357V17.0018H61.4028V18.7058L61.3972 18.7021V20.528H61.4592C61.7398 19.9423 62.3375 19.6957 62.7736 19.572L62.7698 19.5701C62.9919 19.5179 63.229 19.4913 63.4814 19.4913C64.0534 19.4913 64.5413 19.6187 64.9437 19.8744C65.3546 20.1219 65.6648 20.4766 65.8749 20.9395ZM64.9317 23.7645C65.0842 23.4216 65.1611 23.0147 65.1611 22.5435C65.1611 22.0724 65.0842 21.6499 64.9317 21.3226C64.7865 20.9954 64.569 20.748 64.2794 20.5802C63.9971 20.4125 63.6592 20.3291 63.264 20.3291C62.8689 20.3291 62.5549 20.4088 62.273 20.5683C61.9906 20.7278 61.7732 20.9633 61.6202 21.274C61.4677 21.5857 61.3908 21.9606 61.3908 22.3996V22.6865C61.3908 23.1256 61.4677 23.5004 61.6202 23.8121C61.7732 24.1237 61.9906 24.3584 62.273 24.5179C62.5549 24.6774 62.8855 24.7571 63.264 24.7571C63.6425 24.7571 63.9971 24.6737 64.2794 24.506C64.569 24.33 64.7865 24.0834 64.9317 23.7635V23.7645ZM68.2599 19.6352H67.2927V25.4528H68.2599V19.6352ZM72.2271 19.5637C72.4364 19.5637 72.6346 19.5875 72.8196 19.6352V20.4968C72.6346 20.4565 72.4364 20.4372 72.2271 20.4372C71.7034 20.4372 71.3082 20.593 71.0425 20.9038C70.7772 21.2072 70.644 21.6462 70.644 22.22V25.4519H69.6768V19.6343H70.626V20.3914H70.6884C70.8012 20.1558 70.9528 19.9899 71.1194 19.8708C71.1685 19.8378 71.2194 19.8066 71.2723 19.7782C71.5376 19.6343 71.8563 19.5628 72.2271 19.5628V19.5637ZM78.9991 25.4528V17.0018H78.0384V18.7067V18.703V20.5289H77.9765C77.7163 19.9844 77.1824 19.7333 76.7586 19.6013C76.5048 19.5289 76.2327 19.4922 75.9423 19.4922C75.3784 19.4922 74.891 19.6196 74.48 19.8753C74.0691 20.1228 73.7589 20.4775 73.5488 20.9404C73.3399 21.4033 73.2344 21.9377 73.2344 22.5445C73.2344 23.1512 73.3386 23.6856 73.5488 24.1485C73.7581 24.6031 74.0682 24.9588 74.48 25.2136C74.891 25.461 75.3784 25.5848 75.9423 25.5848C76.2075 25.5848 76.4574 25.5563 76.6907 25.5005L76.6556 25.5069C77.0914 25.3831 77.6894 25.1366 77.9696 24.5509H78.0448V25.4537H79L78.9991 25.4528ZM77.8022 21.275C77.9551 21.5866 78.032 21.9615 78.032 22.4005V22.6874C78.032 23.1265 77.9551 23.5014 77.8022 23.813C77.6497 24.1247 77.4323 24.3593 77.1499 24.5188C76.8761 24.6783 76.5493 24.758 76.1708 24.758C75.7923 24.758 75.4331 24.6746 75.1434 24.5069C74.8538 24.3309 74.6364 24.0843 74.4911 23.7645C74.3382 23.4216 74.2613 23.0147 74.2613 22.5435C74.2613 22.0724 74.3382 21.6499 74.4911 21.3226C74.6364 20.9954 74.8538 20.748 75.1434 20.5802C75.4331 20.4125 75.7757 20.3291 76.1708 20.3291C76.5659 20.3291 76.8761 20.4088 77.1499 20.5683C77.4323 20.7278 77.6497 20.9633 77.8022 21.274V21.275Z" fill="black"/>
</svg>
