<svg width="91" height="44" viewBox="0 0 91 44" fill="none" xmlns="http://www.w3.org/2000/svg">
<rect width="91" height="44" fill="#D9D9D9"/>
<path fill-rule="evenodd" clip-rule="evenodd" d="M61.5518 24.4274C64.9091 24.4381 67.4351 21.7559 67.4463 18.3096C67.4573 14.8634 64.9095 12.1647 61.5518 12.1536L56.8425 12.138V24.4117L61.5518 24.4274ZM54.0839 9.67432L61.5989 9.69901C66.5412 9.71515 70.2133 13.2678 70.1975 18.3188C70.1822 23.0866 66.2534 26.8976 61.5438 26.8823L54.0839 26.8575V9.67432Z" fill="#033875"/>
<path fill-rule="evenodd" clip-rule="evenodd" d="M28.7797 24.0363C25.4592 24.0363 22.7676 21.3111 22.7676 17.9494C22.7676 14.5876 25.4594 11.8623 28.7799 11.8623C32.1004 11.8623 34.792 14.5877 34.792 17.9494C34.792 21.3112 32.1002 24.0365 28.7797 24.0363ZM39.5664 26.8575L35.8863 23.1695C36.9386 21.7037 37.5598 19.9001 37.5598 17.9494C37.5598 13.0401 33.6291 9.06024 28.78 9.06024H28.7797C23.9307 9.06024 20 13.0402 20 17.9495C20 22.8589 23.9311 26.8386 28.7801 26.8385C30.6791 26.8384 32.4372 26.2277 33.8737 25.1902L35.5556 26.8575H39.5664Z" fill="#033875"/>
<path fill-rule="evenodd" clip-rule="evenodd" d="M21.0509 34.9627H21.9916V29.9402H21.0509V34.9627Z" fill="#033875"/>
<path fill-rule="evenodd" clip-rule="evenodd" d="M27.1334 29.9402H28.0388V34.9627H26.9944L25.6149 32.7271C25.2103 32.0847 24.9182 31.577 24.73 31.2169C24.7508 31.8102 24.7578 32.6208 24.7578 33.6507V34.9634H23.852V29.9402H24.8972L26.2836 32.1765C26.6882 32.8401 26.9803 33.3404 27.1616 33.686C27.1408 32.896 27.1331 32.0847 27.1331 31.2522L27.1334 29.9402Z" fill="#033875"/>
<path fill-rule="evenodd" clip-rule="evenodd" d="M33.6598 29.9402H34.6352L32.8586 34.9627H31.7574L29.9386 29.9402H30.9419L31.8407 32.5368C32.0359 33.1363 32.1961 33.6584 32.3151 34.1028C32.426 33.672 32.5797 33.1499 32.7816 32.5368L33.6598 29.9402Z" fill="#033875"/>
<path fill-rule="evenodd" clip-rule="evenodd" d="M40.0164 30.7936H37.2998V31.9794H39.7587V32.7971H37.2998V34.1096H40.0026V34.9634H36.358V29.9402H40.0154L40.0164 30.7936Z" fill="#033875"/>
<path fill-rule="evenodd" clip-rule="evenodd" d="M41.6393 33.3053H42.5659C42.5728 34.0459 43.0325 34.3067 43.7925 34.3067C44.4408 34.3067 44.7961 34.053 44.7961 33.5803C44.7961 33.1851 44.5382 33.0161 43.7788 32.8537L43.361 32.7697C42.295 32.565 41.7655 32.0572 41.7655 31.2461C41.7655 30.3925 42.4415 29.8279 43.6048 29.8279C44.9433 29.8279 45.5906 30.4418 45.6255 31.4366H44.7129C44.6781 30.872 44.3715 30.5972 43.6189 30.5972C43.0337 30.5972 42.7273 30.8298 42.7273 31.2178C42.7273 31.6198 42.964 31.8105 43.6962 31.9584L44.1276 32.0427C45.2911 32.2757 45.7719 32.7205 45.7719 33.5314C45.7719 34.5184 45.0201 35.0754 43.7652 35.0754C42.4265 35.0754 41.6462 34.4555 41.6393 33.3053Z" fill="#033875"/>
<path fill-rule="evenodd" clip-rule="evenodd" d="M51.1757 29.9402V30.7936H49.5872V34.9627H48.6396V30.7936H47.0521V29.9402H51.1757Z" fill="#033875"/>
<path fill-rule="evenodd" clip-rule="evenodd" d="M54.9125 34.236C55.9513 34.236 56.4106 33.4114 56.4106 32.4513C56.4106 31.4914 55.9513 30.6672 54.9125 30.6672C53.8887 30.6672 53.4141 31.4993 53.4141 32.4513C53.4141 33.4037 53.8887 34.236 54.9125 34.236ZM52.4319 32.4513C52.4319 30.9207 53.3657 29.8274 54.9125 29.8274C56.466 29.8274 57.3859 30.9207 57.3859 32.4513C57.3859 33.9821 56.466 35.0754 54.9125 35.0754C53.3659 35.0756 52.4319 33.9828 52.4319 32.4513Z" fill="#033875"/>
<path fill-rule="evenodd" clip-rule="evenodd" d="M60.5125 32.2469H61.7662C62.2895 32.2469 62.603 31.9726 62.603 31.464C62.603 30.9773 62.2893 30.7234 61.7315 30.7234H60.5127L60.5125 32.2469ZM63.5017 34.3773C63.499 34.5832 63.552 34.7859 63.6549 34.9634H62.6864C62.5947 34.7775 62.5493 34.5716 62.5547 34.3637L62.5332 33.8127C62.5058 33.1919 62.2685 32.9944 61.7395 32.9944H60.5125V34.9627H59.5719V29.9395H61.8227C62.9374 29.9395 63.5714 30.4907 63.5714 31.3577C63.5995 31.9027 63.2575 32.3971 62.742 32.557C63.2648 32.7264 63.4388 33.0646 63.4596 33.6296L63.5017 34.3773Z" fill="#033875"/>
<path fill-rule="evenodd" clip-rule="evenodd" d="M65.0143 33.3053H65.9417C65.9481 34.0459 66.4082 34.3067 67.1681 34.3067C67.8167 34.3067 68.1713 34.053 68.1713 33.5803C68.1713 33.1851 67.9136 33.0161 67.1543 32.8537L66.7364 32.7697C65.6697 32.565 65.1402 32.0572 65.1402 31.2461C65.1402 30.3925 65.816 29.8279 66.9795 29.8279C68.318 29.8279 68.9659 30.4418 69.0011 31.4366H68.0874C68.0533 30.872 67.7465 30.5972 66.9934 30.5972C66.4083 30.5972 66.1016 30.8298 66.1016 31.2178C66.1016 31.6198 66.3389 31.8105 67.07 31.9584L67.5028 32.0427C68.666 32.2757 69.1465 32.7205 69.1465 33.5314C69.1465 34.5184 68.3946 35.0754 67.1397 35.0754C65.802 35.0754 65.0215 34.4555 65.0143 33.3053Z" fill="#033875"/>
<path fill-rule="evenodd" clip-rule="evenodd" d="M40.2991 9.67444H52.127V12.1291H43.0581V16.999H51.9045V19.493H43.0581V24.363H52.1272V26.8577H40.2993L40.2991 9.67444Z" fill="#033875"/>
</svg>
